<svg xmlns="http://www.w3.org/2000/svg" viewBox="0 0 200 200">
  <path d="M100 0C44.8 0 0 44.8 0 100s44.8 100 100 100 100-44.8 100-100S155.2 0 100 0zm0 180c-44.1 0-80-35.9-80-80s35.9-80 80-80 80 35.9 80 80-35.9 80-80 80z" fill="#BE3A8E"/>
  <path d="M100 40c-33.1 0-60 26.9-60 60s26.9 60 60 60 60-26.9 60-60-26.9-60-60-60zm0 100c-22.1 0-40-17.9-40-40s17.9-40 40-40 40 17.9 40 40-17.9 40-40 40z" fill="#BE3A8E"/>
  <path d="M100 70c-16.5 0-30 13.5-30 30s13.5 30 30 30 30-13.5 30-30-13.5-30-30-30zm0 40c-5.5 0-10-4.5-10-10s4.5-10 10-10 10 4.5 10 10-4.5 10-10 10z" fill="#BE3A8E"/>
</svg>